{
    "asset" : {
        "generator" : "Khronos glTF Blender I/O v3.2.40",
        "version" : "2.0"
    },
    "scene" : 0,
    "scenes" : [
        {
            "name" : "Scene",
            "nodes" : [
                0,
                1
            ]
        }
    ],
    "nodes" : [
        {
            "mesh" : 0,
            "name" : "mesh_wall",
            "rotation" : [
                0,
                1,
                0,
                0
            ],
            "scale" : [
                0.44194841384887695,
                1.4570409059524536,
                1.4570409059524536
            ],
            "translation" : [
                -1.5687270206399262e-05,
                33.376895904541016,
                -58.2634162902832
            ]
        },
        {
            "mesh" : 1,
            "name" : "mesh_hanzi",
            "rotation" : [
                0,
                1,
                0,
                0
            ],
            "scale" : [
                0.44194841384887695,
                1.4570409059524536,
                1.4570409059524536
            ],
            "translation" : [
                -62.748809814453125,
                35.10820388793945,
                -1.610198974609375
            ]
        }
    ],
    "animations" : [
        {
            "channels" : [
                {
                    "sampler" : 0,
                    "target" : {
                        "node" : 0,
                        "path" : "translation"
                    }
                },
                {
                    "sampler" : 1,
                    "target" : {
                        "node" : 0,
                        "path" : "rotation"
                    }
                },
                {
                    "sampler" : 2,
                    "target" : {
                        "node" : 0,
                        "path" : "scale"
                    }
                }
            ],
            "name" : "mesh_wall",
            "samplers" : [
                {
                    "input" : 8,
                    "interpolation" : "LINEAR",
                    "output" : 9
                },
                {
                    "input" : 8,
                    "interpolation" : "LINEAR",
                    "output" : 10
                },
                {
                    "input" : 8,
                    "interpolation" : "LINEAR",
                    "output" : 11
                }
            ]
        },
        {
            "channels" : [
                {
                    "sampler" : 0,
                    "target" : {
                        "node" : 1,
                        "path" : "translation"
                    }
                },
                {
                    "sampler" : 1,
                    "target" : {
                        "node" : 1,
                        "path" : "rotation"
                    }
                },
                {
                    "sampler" : 2,
                    "target" : {
                        "node" : 1,
                        "path" : "scale"
                    }
                }
            ],
            "name" : "mesh_hanzi",
            "samplers" : [
                {
                    "input" : 8,
                    "interpolation" : "LINEAR",
                    "output" : 12
                },
                {
                    "input" : 8,
                    "interpolation" : "LINEAR",
                    "output" : 13
                },
                {
                    "input" : 8,
                    "interpolation" : "LINEAR",
                    "output" : 14
                }
            ]
        }
    ],
    "materials" : [
        {
            "name" : "material_wall",
            "normalTexture" : {
                "index" : 0
            },
            "pbrMetallicRoughness" : {
                "baseColorTexture" : {
                    "index" : 1
                },
                "metallicRoughnessTexture" : {
                    "index" : 2
                }
            }
        }
    ],
    "meshes" : [
        {
            "name" : "Plane.012",
            "primitives" : [
                {
                    "attributes" : {
                        "POSITION" : 0,
                        "NORMAL" : 1,
                        "TEXCOORD_0" : 2
                    },
                    "indices" : 3,
                    "material" : 0
                }
            ]
        },
        {
            "name" : "Plane.017",
            "primitives" : [
                {
                    "attributes" : {
                        "POSITION" : 4,
                        "NORMAL" : 5,
                        "TEXCOORD_0" : 6
                    },
                    "indices" : 7
                }
            ]
        }
    ],
    "textures" : [
        {
            "sampler" : 0,
            "source" : 0
        },
        {
            "sampler" : 0,
            "source" : 1
        },
        {
            "sampler" : 0,
            "source" : 2
        }
    ],
    "images" : [
        {
            "bufferView" : 4,
            "mimeType" : "image/png",
            "name" : "Image_0"
        },
        {
            "bufferView" : 5,
            "mimeType" : "image/png",
            "name" : "Image_2"
        },
        {
            "bufferView" : 6,
            "mimeType" : "image/png",
            "name" : "Image_3"
        }
    ],
    "accessors" : [
        {
            "bufferView" : 0,
            "componentType" : 5126,
            "count" : 531,
            "max" : [
                100.79588317871094,
                17.158044815063477,
                1.2009925842285156
            ],
            "min" : [
                -100.79588317871094,
                -17.15807342529297,
                -0.8807640075683594
            ],
            "type" : "VEC3"
        },
        {
            "bufferView" : 1,
            "componentType" : 5126,
            "count" : 531,
            "type" : "VEC3"
        },
        {
            "bufferView" : 2,
            "componentType" : 5126,
            "count" : 531,
            "type" : "VEC2"
        },
        {
            "bufferView" : 3,
            "componentType" : 5123,
            "count" : 912,
            "type" : "SCALAR"
        },
        {
            "bufferView" : 7,
            "componentType" : 5126,
            "count" : 2892,
            "max" : [
                -43.823768615722656,
                15.169809341430664,
                39.006813049316406
            ],
            "min" : [
                -240.14056396484375,
                -17.546310424804688,
                38.32048034667969
            ],
            "type" : "VEC3"
        },
        {
            "bufferView" : 8,
            "componentType" : 5126,
            "count" : 2892,
            "type" : "VEC3"
        },
        {
            "bufferView" : 9,
            "componentType" : 5126,
            "count" : 2892,
            "type" : "VEC2"
        },
        {
            "bufferView" : 10,
            "componentType" : 5123,
            "count" : 8016,
            "type" : "SCALAR"
        },
        {
            "bufferView" : 11,
            "componentType" : 5126,
            "count" : 2,
            "max" : [
                16.666666666666668
            ],
            "min" : [
                16.625
            ],
            "type" : "SCALAR"
        },
        {
            "bufferView" : 12,
            "componentType" : 5126,
            "count" : 2,
            "type" : "VEC3"
        },
        {
            "bufferView" : 13,
            "componentType" : 5126,
            "count" : 2,
            "type" : "VEC4"
        },
        {
            "bufferView" : 14,
            "componentType" : 5126,
            "count" : 2,
            "type" : "VEC3"
        },
        {
            "bufferView" : 15,
            "componentType" : 5126,
            "count" : 2,
            "type" : "VEC3"
        },
        {
            "bufferView" : 16,
            "componentType" : 5126,
            "count" : 2,
            "type" : "VEC4"
        },
        {
            "bufferView" : 17,
            "componentType" : 5126,
            "count" : 2,
            "type" : "VEC3"
        }
    ],
    "bufferViews" : [
        {
            "buffer" : 0,
            "byteLength" : 6372,
            "byteOffset" : 0
        },
        {
            "buffer" : 0,
            "byteLength" : 6372,
            "byteOffset" : 6372
        },
        {
            "buffer" : 0,
            "byteLength" : 4248,
            "byteOffset" : 12744
        },
        {
            "buffer" : 0,
            "byteLength" : 1824,
            "byteOffset" : 16992
        },
        {
            "buffer" : 0,
            "byteLength" : 575662,
            "byteOffset" : 18816
        },
        {
            "buffer" : 0,
            "byteLength" : 570874,
            "byteOffset" : 594480
        },
        {
            "buffer" : 0,
            "byteLength" : 921885,
            "byteOffset" : 1165356
        },
        {
            "buffer" : 0,
            "byteLength" : 34704,
            "byteOffset" : 2087244
        },
        {
            "buffer" : 0,
            "byteLength" : 34704,
            "byteOffset" : 2121948
        },
        {
            "buffer" : 0,
            "byteLength" : 23136,
            "byteOffset" : 2156652
        },
        {
            "buffer" : 0,
            "byteLength" : 16032,
            "byteOffset" : 2179788
        },
        {
            "buffer" : 0,
            "byteLength" : 8,
            "byteOffset" : 2195820
        },
        {
            "buffer" : 0,
            "byteLength" : 24,
            "byteOffset" : 2195828
        },
        {
            "buffer" : 0,
            "byteLength" : 32,
            "byteOffset" : 2195852
        },
        {
            "buffer" : 0,
            "byteLength" : 24,
            "byteOffset" : 2195884
        },
        {
            "buffer" : 0,
            "byteLength" : 24,
            "byteOffset" : 2195908
        },
        {
            "buffer" : 0,
            "byteLength" : 32,
            "byteOffset" : 2195932
        },
        {
            "buffer" : 0,
            "byteLength" : 24,
            "byteOffset" : 2195964
        }
    ],
    "samplers" : [
        {
            "magFilter" : 9729,
            "minFilter" : 9987
        }
    ],
    "buffers" : [
        {
            "byteLength" : 2195988,
            "uri" : "data:application/octet-stream;base64,"
        }
    ]
}
