{
    "asset" : {
        "generator" : "Khronos glTF Blender I/O v3.2.40",
        "version" : "2.0"
    },
    "scene" : 0,
    "scenes" : [
        {
            "name" : "Scene",
            "nodes" : [
                0,
                1
            ]
        }
    ],
    "nodes" : [
        {
            "mesh" : 0,
            "name" : "mesh_tree",
            "rotation" : [
                0,
                0.7071068286895752,
                0,
                0.7071067094802856
            ],
            "scale" : [
                0.20000001788139343,
                0.19999998807907104,
                0.20000001788139343
            ],
            "translation" : [
                0,
                55.7728385925293,
                14.344400405883789
            ]
        },
        {
            "mesh" : 1,
            "name" : "mesh_sakura",
            "rotation" : [
                -0.7071068286895752,
                0,
                0,
                0.7071067094802856
            ],
            "scale" : [
                50,
                50.00000762939453,
                50.00000762939453
            ]
        }
    ],
    "materials" : [
        {
            "doubleSided" : true,
            "name" : "material_tree",
            "pbrMetallicRoughness" : {
                "baseColorFactor" : [
                    0.32488566637039185,
                    0.32488566637039185,
                    0.32488566637039185,
                    1
                ],
                "baseColorTexture" : {
                    "index" : 0
                },
                "metallicRoughnessTexture" : {
                    "index" : 1
                }
            }
        },
        {
            "alphaMode" : "BLEND",
            "doubleSided" : true,
            "name" : "material_sakura",
            "pbrMetallicRoughness" : {
                "baseColorTexture" : {
                    "index" : 2
                },
                "metallicFactor" : 0,
                "roughnessFactor" : 0.5
            }
        }
    ],
    "meshes" : [
        {
            "name" : "Loft002_Bark_0",
            "primitives" : [
                {
                    "attributes" : {
                        "POSITION" : 0,
                        "NORMAL" : 1,
                        "TEXCOORD_0" : 2
                    },
                    "indices" : 3,
                    "material" : 0
                }
            ]
        },
        {
            "name" : "Object_0.001",
            "primitives" : [
                {
                    "attributes" : {
                        "POSITION" : 4,
                        "NORMAL" : 5,
                        "TEXCOORD_0" : 6
                    },
                    "indices" : 7,
                    "material" : 1
                }
            ]
        }
    ],
    "textures" : [
        {
            "sampler" : 0,
            "source" : 0
        },
        {
            "sampler" : 0,
            "source" : 1
        },
        {
            "sampler" : 0,
            "source" : 2
        }
    ],
    "images" : [
        {
            "bufferView" : 4,
            "mimeType" : "image/jpeg",
            "name" : "Trank_bark_baseColor Small"
        },
        {
            "bufferView" : 5,
            "mimeType" : "image/jpeg",
            "name" : "Trank_bark_metallicRoughness Small"
        },
        {
            "bufferView" : 10,
            "mimeType" : "image/png",
            "name" : "cherry"
        }
    ],
    "accessors" : [
        {
            "bufferView" : 0,
            "componentType" : 5126,
            "count" : 1822,
            "max" : [
                299.7528381347656,
                109.08090209960938,
                52.820255279541016
            ],
            "min" : [
                -106.07035827636719,
                -279.9093017578125,
                -92.48651885986328
            ],
            "type" : "VEC3"
        },
        {
            "bufferView" : 1,
            "componentType" : 5126,
            "count" : 1822,
            "type" : "VEC3"
        },
        {
            "bufferView" : 2,
            "componentType" : 5126,
            "count" : 1822,
            "type" : "VEC2"
        },
        {
            "bufferView" : 3,
            "componentType" : 5123,
            "count" : 3918,
            "type" : "SCALAR"
        },
        {
            "bufferView" : 6,
            "componentType" : 5126,
            "count" : 12020,
            "max" : [
                0.8028299808502197,
                1.3153300285339355,
                2.052500009536743
            ],
            "min" : [
                -1.3118699789047241,
                -1.439210057258606,
                0.18327000737190247
            ],
            "type" : "VEC3"
        },
        {
            "bufferView" : 7,
            "componentType" : 5126,
            "count" : 12020,
            "type" : "VEC3"
        },
        {
            "bufferView" : 8,
            "componentType" : 5126,
            "count" : 12020,
            "type" : "VEC2"
        },
        {
            "bufferView" : 9,
            "componentType" : 5123,
            "count" : 18030,
            "type" : "SCALAR"
        }
    ],
    "bufferViews" : [
        {
            "buffer" : 0,
            "byteLength" : 21864,
            "byteOffset" : 0
        },
        {
            "buffer" : 0,
            "byteLength" : 21864,
            "byteOffset" : 21864
        },
        {
            "buffer" : 0,
            "byteLength" : 14576,
            "byteOffset" : 43728
        },
        {
            "buffer" : 0,
            "byteLength" : 7836,
            "byteOffset" : 58304
        },
        {
            "buffer" : 0,
            "byteLength" : 30072,
            "byteOffset" : 66140
        },
        {
            "buffer" : 0,
            "byteLength" : 28563,
            "byteOffset" : 96212
        },
        {
            "buffer" : 0,
            "byteLength" : 144240,
            "byteOffset" : 124776
        },
        {
            "buffer" : 0,
            "byteLength" : 144240,
            "byteOffset" : 269016
        },
        {
            "buffer" : 0,
            "byteLength" : 96160,
            "byteOffset" : 413256
        },
        {
            "buffer" : 0,
            "byteLength" : 36060,
            "byteOffset" : 509416
        },
        {
            "buffer" : 0,
            "byteLength" : 138442,
            "byteOffset" : 545476
        }
    ],
    "samplers" : [
        {
            "magFilter" : 9729,
            "minFilter" : 9987
        }
    ],
    "buffers" : [
        {
            "byteLength" : 683920,
            "uri" : "data:application/octet-stream;base64,"
        }
    ]
}
