{
    "asset" : {
        "generator" : "Khronos glTF Blender I/O v3.2.40",
        "version" : "2.0"
    },
    "scene" : 0,
    "scenes" : [
        {
            "name" : "Scene",
            "nodes" : [
                0,
                1
            ]
        }
    ],
    "nodes" : [
        {
            "mesh" : 0,
            "name" : "mesh_wall",
            "rotation" : [
                0,
                1,
                0,
                0
            ],
            "scale" : [
                0.44194841384887695,
                1.4570409059524536,
                1.4570409059524536
            ],
            "translation" : [
                0,
                0,
                3.814697265625e-06
            ]
        },
        {
            "mesh" : 1,
            "name" : "mesh_hanzi",
            "rotation" : [
                0,
                1,
                0,
                0
            ],
            "scale" : [
                0.44194841384887695,
                1.4570409059524536,
                1.4570409059524536
            ],
            "translation" : [
                0,
                1.8952796459197998,
                -3.814697265625e-06
            ]
        }
    ],
    "animations" : [
        {
            "channels" : [
                {
                    "sampler" : 0,
                    "target" : {
                        "node" : 0,
                        "path" : "translation"
                    }
                },
                {
                    "sampler" : 1,
                    "target" : {
                        "node" : 0,
                        "path" : "rotation"
                    }
                },
                {
                    "sampler" : 2,
                    "target" : {
                        "node" : 0,
                        "path" : "scale"
                    }
                }
            ],
            "name" : "mesh_wall",
            "samplers" : [
                {
                    "input" : 8,
                    "interpolation" : "LINEAR",
                    "output" : 9
                },
                {
                    "input" : 8,
                    "interpolation" : "LINEAR",
                    "output" : 10
                },
                {
                    "input" : 8,
                    "interpolation" : "LINEAR",
                    "output" : 11
                }
            ]
        },
        {
            "channels" : [
                {
                    "sampler" : 0,
                    "target" : {
                        "node" : 1,
                        "path" : "translation"
                    }
                },
                {
                    "sampler" : 1,
                    "target" : {
                        "node" : 1,
                        "path" : "rotation"
                    }
                },
                {
                    "sampler" : 2,
                    "target" : {
                        "node" : 1,
                        "path" : "scale"
                    }
                }
            ],
            "name" : "mesh_hanzi",
            "samplers" : [
                {
                    "input" : 8,
                    "interpolation" : "LINEAR",
                    "output" : 12
                },
                {
                    "input" : 8,
                    "interpolation" : "LINEAR",
                    "output" : 13
                },
                {
                    "input" : 8,
                    "interpolation" : "LINEAR",
                    "output" : 14
                }
            ]
        }
    ],
    "materials" : [
        {
            "name" : "material_wall",
            "pbrMetallicRoughness" : {
                "baseColorFactor" : [
                    0.03954625129699707,
                    0.014443845488131046,
                    0.00334653677418828,
                    1
                ],
                "metallicFactor" : 0,
                "roughnessFactor" : 0
            }
        },
        {
            "name" : "material_hanzi",
            "pbrMetallicRoughness" : {
                "baseColorFactor" : [
                    0.800000011920929,
                    0.800000011920929,
                    0.800000011920929,
                    1
                ],
                "metallicFactor" : 0,
                "roughnessFactor" : 0.5
            }
        }
    ],
    "meshes" : [
        {
            "name" : "Plane.012",
            "primitives" : [
                {
                    "attributes" : {
                        "POSITION" : 0,
                        "NORMAL" : 1,
                        "TEXCOORD_0" : 2
                    },
                    "indices" : 3,
                    "material" : 0
                }
            ]
        },
        {
            "name" : "Plane.017",
            "primitives" : [
                {
                    "attributes" : {
                        "POSITION" : 4,
                        "NORMAL" : 5,
                        "TEXCOORD_0" : 6
                    },
                    "indices" : 7,
                    "material" : 1
                }
            ]
        }
    ],
    "accessors" : [
        {
            "bufferView" : 0,
            "componentType" : 5126,
            "count" : 530,
            "max" : [
                100.79588317871094,
                17.158044815063477,
                1.2009925842285156
            ],
            "min" : [
                -100.79588317871094,
                -17.15807342529297,
                -0.8807640075683594
            ],
            "type" : "VEC3"
        },
        {
            "bufferView" : 1,
            "componentType" : 5126,
            "count" : 530,
            "type" : "VEC3"
        },
        {
            "bufferView" : 2,
            "componentType" : 5126,
            "count" : 530,
            "type" : "VEC2"
        },
        {
            "bufferView" : 3,
            "componentType" : 5123,
            "count" : 912,
            "type" : "SCALAR"
        },
        {
            "bufferView" : 4,
            "componentType" : 5126,
            "count" : 2892,
            "max" : [
                98.15841674804688,
                15.169815063476562,
                0.3741035461425781
            ],
            "min" : [
                -98.15837860107422,
                -17.54630470275879,
                -0.3122291564941406
            ],
            "type" : "VEC3"
        },
        {
            "bufferView" : 5,
            "componentType" : 5126,
            "count" : 2892,
            "type" : "VEC3"
        },
        {
            "bufferView" : 6,
            "componentType" : 5126,
            "count" : 2892,
            "type" : "VEC2"
        },
        {
            "bufferView" : 7,
            "componentType" : 5123,
            "count" : 8016,
            "type" : "SCALAR"
        },
        {
            "bufferView" : 8,
            "componentType" : 5126,
            "count" : 2,
            "max" : [
                16.666666666666668
            ],
            "min" : [
                16.625
            ],
            "type" : "SCALAR"
        },
        {
            "bufferView" : 9,
            "componentType" : 5126,
            "count" : 2,
            "type" : "VEC3"
        },
        {
            "bufferView" : 10,
            "componentType" : 5126,
            "count" : 2,
            "type" : "VEC4"
        },
        {
            "bufferView" : 11,
            "componentType" : 5126,
            "count" : 2,
            "type" : "VEC3"
        },
        {
            "bufferView" : 12,
            "componentType" : 5126,
            "count" : 2,
            "type" : "VEC3"
        },
        {
            "bufferView" : 13,
            "componentType" : 5126,
            "count" : 2,
            "type" : "VEC4"
        },
        {
            "bufferView" : 14,
            "componentType" : 5126,
            "count" : 2,
            "type" : "VEC3"
        }
    ],
    "bufferViews" : [
        {
            "buffer" : 0,
            "byteLength" : 6360,
            "byteOffset" : 0
        },
        {
            "buffer" : 0,
            "byteLength" : 6360,
            "byteOffset" : 6360
        },
        {
            "buffer" : 0,
            "byteLength" : 4240,
            "byteOffset" : 12720
        },
        {
            "buffer" : 0,
            "byteLength" : 1824,
            "byteOffset" : 16960
        },
        {
            "buffer" : 0,
            "byteLength" : 34704,
            "byteOffset" : 18784
        },
        {
            "buffer" : 0,
            "byteLength" : 34704,
            "byteOffset" : 53488
        },
        {
            "buffer" : 0,
            "byteLength" : 23136,
            "byteOffset" : 88192
        },
        {
            "buffer" : 0,
            "byteLength" : 16032,
            "byteOffset" : 111328
        },
        {
            "buffer" : 0,
            "byteLength" : 8,
            "byteOffset" : 127360
        },
        {
            "buffer" : 0,
            "byteLength" : 24,
            "byteOffset" : 127368
        },
        {
            "buffer" : 0,
            "byteLength" : 32,
            "byteOffset" : 127392
        },
        {
            "buffer" : 0,
            "byteLength" : 24,
            "byteOffset" : 127424
        },
        {
            "buffer" : 0,
            "byteLength" : 24,
            "byteOffset" : 127448
        },
        {
            "buffer" : 0,
            "byteLength" : 32,
            "byteOffset" : 127472
        },
        {
            "buffer" : 0,
            "byteLength" : 24,
            "byteOffset" : 127504
        }
    ],
    "buffers" : [
        {
            "byteLength" : 127528,
            "uri" : "data:application/octet-stream;base64,"
        }
    ]
}
